<svg width="25" height="25" viewBox="0 0 25 25" fill="none" xmlns="http://www.w3.org/2000/svg">
<path d="M12.5 23.4375C15.4008 23.4375 18.1828 22.2852 20.234 20.234C22.2852 18.1828 23.4375 15.4008 23.4375 12.5C23.4375 9.59919 22.2852 6.8172 20.234 4.76602C18.1828 2.71484 15.4008 1.5625 12.5 1.5625C9.59919 1.5625 6.8172 2.71484 4.76602 4.76602C2.71484 6.8172 1.5625 9.59919 1.5625 12.5C1.5625 15.4008 2.71484 18.1828 4.76602 20.234C6.8172 22.2852 9.59919 23.4375 12.5 23.4375ZM12.5 13.8266L9.95938 16.3672C9.78346 16.5431 9.54487 16.6419 9.29609 16.6419C9.04732 16.6419 8.80873 16.5431 8.63281 16.3672C8.4569 16.1913 8.35807 15.9527 8.35807 15.7039C8.35807 15.4551 8.4569 15.2165 8.63281 15.0406L11.1734 12.5L8.63281 9.95937C8.54571 9.87227 8.47661 9.76886 8.42948 9.65506C8.38234 9.54125 8.35807 9.41928 8.35807 9.29609C8.35807 9.17291 8.38234 9.05093 8.42948 8.93713C8.47661 8.82332 8.54571 8.71992 8.63281 8.63281C8.71992 8.54571 8.82332 8.47661 8.93713 8.42947C9.05093 8.38233 9.17291 8.35807 9.29609 8.35807C9.41928 8.35807 9.54125 8.38233 9.65506 8.42947C9.76887 8.47661 9.87227 8.54571 9.95938 8.63281L12.5 11.1734L15.0406 8.63281C15.1277 8.54571 15.2311 8.47661 15.3449 8.42947C15.4587 8.38233 15.5807 8.35807 15.7039 8.35807C15.8271 8.35807 15.9491 8.38233 16.0629 8.42947C16.1767 8.47661 16.2801 8.54571 16.3672 8.63281C16.4543 8.71992 16.5234 8.82332 16.5705 8.93713C16.6177 9.05093 16.6419 9.17291 16.6419 9.29609C16.6419 9.41928 16.6177 9.54125 16.5705 9.65506C16.5234 9.76886 16.4543 9.87227 16.3672 9.95937L13.8266 12.5L16.3672 15.0406C16.4543 15.1277 16.5234 15.2311 16.5705 15.3449C16.6177 15.4587 16.6419 15.5807 16.6419 15.7039C16.6419 15.8271 16.6177 15.9491 16.5705 16.0629C16.5234 16.1767 16.4543 16.2801 16.3672 16.3672C16.2801 16.4543 16.1767 16.5234 16.0629 16.5705C15.9491 16.6177 15.8271 16.6419 15.7039 16.6419C15.5807 16.6419 15.4587 16.6177 15.3449 16.5705C15.2311 16.5234 15.1277 16.4543 15.0406 16.3672L12.5 13.8266Z" fill="black"/>
</svg>
