<svg width="23" height="21" viewBox="0 0 23 21" fill="none" xmlns="http://www.w3.org/2000/svg">
<path d="M11.5 15C13.433 15 15 13.433 15 11.5C15 9.567 13.433 8 11.5 8C9.567 8 8 9.567 8 11.5C8 13.433 9.567 15 11.5 15Z" fill="#CCCCCC"/>
<path d="M8.05 0L5.9455 2.33333H2.3C1.035 2.33333 0 3.38333 0 4.66667V18.6667C0 19.95 1.035 21 2.3 21H20.7C21.965 21 23 19.95 23 18.6667V4.66667C23 3.38333 21.965 2.33333 20.7 2.33333H17.0545L14.95 0H8.05ZM11.5 17.5C8.326 17.5 5.75 14.8867 5.75 11.6667C5.75 8.44667 8.326 5.83333 11.5 5.83333C14.674 5.83333 17.25 8.44667 17.25 11.6667C17.25 14.8867 14.674 17.5 11.5 17.5Z" fill="#CCCCCC"/>
</svg>
