<svg width="80" height="80" viewBox="0 0 80 80" fill="none" xmlns="http://www.w3.org/2000/svg">
<circle cx="40" cy="40" r="40" fill="#F2F3F7"/>
<path d="M26.6667 56C26.6667 56 24 56 24 53.3333C24 50.6667 26.6667 42.6667 40 42.6667C53.3333 42.6667 56 50.6667 56 53.3333C56 56 53.3333 56 53.3333 56H26.6667ZM40 40C42.1217 40 44.1566 39.1571 45.6569 37.6569C47.1571 36.1566 48 34.1217 48 32C48 29.8783 47.1571 27.8434 45.6569 26.3431C44.1566 24.8429 42.1217 24 40 24C37.8783 24 35.8434 24.8429 34.3431 26.3431C32.8429 27.8434 32 29.8783 32 32C32 34.1217 32.8429 36.1566 34.3431 37.6569C35.8434 39.1571 37.8783 40 40 40Z" fill="#787878"/>
</svg>
