<svg width="34" height="34" viewBox="0 0 34 34" fill="none" xmlns="http://www.w3.org/2000/svg">
<path d="M17 20.1876C15.7727 20.1887 14.5643 19.8856 13.4828 19.3054C12.4012 18.7253 11.4803 17.8861 10.8024 16.863L12.5726 15.6869C13.0571 16.4176 13.715 17.017 14.4875 17.4316C15.2601 17.8463 16.1232 18.0633 17 18.0633C17.8768 18.0633 18.7399 17.8463 19.5125 17.4316C20.285 17.017 20.9429 16.4176 21.4274 15.6869L23.1976 16.863C22.5197 17.8861 21.5988 18.7253 20.5173 19.3054C19.4357 19.8856 18.2273 20.1887 17 20.1876ZM21.25 8.50011C20.8297 8.50011 20.4189 8.62474 20.0694 8.85824C19.72 9.09173 19.4476 9.42361 19.2868 9.81191C19.1259 10.2002 19.0838 10.6275 19.1658 11.0397C19.2478 11.4519 19.4502 11.8305 19.7474 12.1277C20.0446 12.4249 20.4232 12.6273 20.8354 12.7093C21.2476 12.7913 21.6749 12.7492 22.0632 12.5884C22.4515 12.4275 22.7834 12.1551 23.0169 11.8057C23.2504 11.4562 23.375 11.0454 23.375 10.6251C23.3778 10.3453 23.3248 10.0677 23.219 9.80856C23.1132 9.54946 22.9568 9.31407 22.7589 9.11617C22.561 8.91828 22.3257 8.76186 22.0666 8.65608C21.8075 8.55029 21.5299 8.49727 21.25 8.50011ZM12.75 8.50011C12.3297 8.50011 11.9189 8.62474 11.5694 8.85824C11.22 9.09173 10.9476 9.42361 10.7868 9.81191C10.6259 10.2002 10.5838 10.6275 10.6658 11.0397C10.7478 11.4519 10.9502 11.8305 11.2474 12.1277C11.5446 12.4249 11.9232 12.6273 12.3354 12.7093C12.7476 12.7913 13.1749 12.7492 13.5632 12.5884C13.9515 12.4275 14.2834 12.1551 14.5169 11.8057C14.7504 11.4562 14.875 11.0454 14.875 10.6251C14.8778 10.3453 14.8248 10.0677 14.719 9.80856C14.6132 9.54946 14.4568 9.31407 14.2589 9.11617C14.061 8.91828 13.8257 8.76186 13.5666 8.65608C13.3075 8.55029 13.0299 8.49727 12.75 8.50011Z" fill="#FF7043"/>
<path d="M18.8445 31.875L17 30.8125L21.25 23.375H27.625C27.9042 23.3754 28.1807 23.3207 28.4387 23.2141C28.6967 23.1075 28.9311 22.9509 29.1285 22.7535C29.3259 22.5561 29.4825 22.3217 29.5891 22.0637C29.6957 21.8057 29.7504 21.5292 29.75 21.25V6.375C29.7504 6.09582 29.6957 5.81931 29.5891 5.5613C29.4825 5.3033 29.3259 5.06887 29.1285 4.87146C28.9311 4.67405 28.6967 4.51754 28.4387 4.4109C28.1807 4.30426 27.9042 4.24958 27.625 4.25H6.375C6.09582 4.24958 5.81931 4.30426 5.5613 4.4109C5.3033 4.51754 5.06887 4.67405 4.87146 4.87146C4.67405 5.06887 4.51754 5.3033 4.4109 5.5613C4.30426 5.81931 4.24958 6.09582 4.25 6.375V21.25C4.24958 21.5292 4.30426 21.8057 4.4109 22.0637C4.51754 22.3217 4.67405 22.5561 4.87146 22.7535C5.06887 22.9509 5.3033 23.1075 5.5613 23.2141C5.81931 23.3207 6.09582 23.3754 6.375 23.375H15.9375V25.5H6.375C5.24783 25.5 4.16683 25.0522 3.3698 24.2552C2.57277 23.4582 2.125 22.3772 2.125 21.25V6.375C2.12486 5.81684 2.23469 5.26413 2.44823 4.74843C2.66176 4.23273 2.97481 3.76416 3.36949 3.36949C3.76416 2.97481 4.23273 2.66176 4.74843 2.44823C5.26413 2.23469 5.81684 2.12486 6.375 2.125H27.625C28.1832 2.12486 28.7359 2.23469 29.2516 2.44823C29.7673 2.66176 30.2358 2.97481 30.6305 3.36949C31.0252 3.76416 31.3382 4.23273 31.5518 4.74843C31.7653 5.26413 31.8751 5.81684 31.875 6.375V21.25C31.875 22.3772 31.4272 23.4582 30.6302 24.2552C29.8332 25.0522 28.7522 25.5 27.625 25.5H22.4878L18.8445 31.875Z" fill="#FF7043"/>
</svg>
