<svg width="22" height="22" viewBox="0 0 22 22" fill="none" xmlns="http://www.w3.org/2000/svg">
<path d="M1.83203 7.69987C1.83192 7.04204 1.96293 6.39079 2.2174 5.78417C2.47187 5.17756 2.84471 4.62775 3.31411 4.16688C3.78351 3.70601 4.34007 3.34333 4.95125 3.10003C5.56243 2.85673 6.21598 2.73769 6.8737 2.74987C7.65191 2.74574 8.42212 2.90705 9.13327 3.22312C9.84443 3.53919 10.4803 4.00279 10.9987 4.58321C11.5171 4.00279 12.153 3.53919 12.8641 3.22312C13.5753 2.90705 14.3455 2.74574 15.1237 2.74987C15.7814 2.73769 16.435 2.85673 17.0461 3.10003C17.6573 3.34333 18.2139 3.70601 18.6833 4.16688C19.1527 4.62775 19.5255 5.17756 19.78 5.78417C20.0345 6.39079 20.1655 7.04204 20.1654 7.69987C20.1654 12.6095 14.3179 16.3165 10.9987 19.2499C7.68678 16.2918 1.83203 12.6132 1.83203 7.69987Z" fill="#CCCCCC"/>
</svg>
