<svg width="35" height="35" viewBox="0 0 35 35" fill="none" xmlns="http://www.w3.org/2000/svg">
<path d="M15.7557 4.26918C16.248 3.86588 16.8649 3.64551 17.5013 3.64551C18.1378 3.64551 18.7546 3.86588 19.2469 4.26918L28.8537 12.1019C29.1806 12.3699 29.4438 12.7072 29.6243 13.0895C29.8047 13.4717 29.8979 13.8893 29.8971 14.312V28.5198C29.8971 30.0853 28.6488 31.3541 27.1081 31.3541H23.3893C21.8486 31.3541 20.6003 30.0853 20.6003 28.5198V21.6926C20.6003 21.1713 20.1846 20.7483 19.6706 20.7483H15.332C14.8187 20.7483 14.4023 21.1713 14.4023 21.6926V28.5205C14.4023 30.0861 13.154 31.3548 11.6133 31.3548H7.89454C6.35454 31.3541 5.10547 30.0853 5.10547 28.5198V14.312C5.10468 13.8893 5.19789 13.4717 5.37836 13.0895C5.55882 12.7072 5.82203 12.3699 6.14891 12.1019L15.7557 4.26918ZM18.0832 5.74283C17.919 5.60848 17.7134 5.53508 17.5013 5.53508C17.2892 5.53508 17.0836 5.60848 16.9194 5.74283L7.31266 13.5748C7.20366 13.6642 7.11591 13.7767 7.05575 13.9042C6.9956 14.0317 6.96455 14.171 6.96485 14.312V28.5198C6.96485 29.0419 7.38047 29.4648 7.89454 29.4648H11.6133C12.1266 29.4648 12.543 29.0419 12.543 28.5198V21.6926C12.543 20.1278 13.792 18.8591 15.332 18.8591H19.6706C21.2106 18.8591 22.4596 20.1278 22.4596 21.6926V28.5205C22.4596 29.0426 22.8753 29.4655 23.3893 29.4655H27.1081C27.6214 29.4655 28.0378 29.0426 28.0378 28.5205V14.312C28.0382 14.1711 28.0072 14.0319 27.947 13.9045C27.8868 13.7771 27.799 13.6647 27.69 13.5755L18.0832 5.7421V5.74283Z" fill="#CCCCCC"/>
</svg>
