<svg width="30" height="28" viewBox="0 0 30 28" fill="none" xmlns="http://www.w3.org/2000/svg">
<path d="M29.0304 9.8596L20.037 8.58214L16.0167 0.616237C15.9069 0.398135 15.7262 0.221576 15.5031 0.114257C14.9434 -0.155774 14.2633 0.0692515 13.9835 0.616237L9.96319 8.58214L0.969774 9.8596C0.721827 9.89422 0.495132 10.0085 0.321568 10.1816C0.11174 10.3923 -0.00388537 10.6759 9.96959e-05 10.97C0.00408476 11.264 0.127354 11.5445 0.342821 11.7498L6.84968 17.9501L5.3124 26.7054C5.27635 26.909 5.29941 27.1185 5.37896 27.31C5.45852 27.5015 5.59138 27.6674 5.76249 27.7889C5.9336 27.9103 6.13611 27.9825 6.34705 27.9972C6.55799 28.0119 6.76893 27.9685 6.95594 27.872L15.0001 23.7385L23.0442 27.872C23.2638 27.9863 23.5188 28.0244 23.7633 27.9828C24.3796 27.879 24.794 27.3077 24.6877 26.7054L23.1505 17.9501L29.6573 11.7498C29.8344 11.5802 29.9513 11.3586 29.9867 11.1163C30.0824 10.5104 29.6502 9.94961 29.0304 9.8596Z" fill="#CCCCCC"/>
</svg>
