<svg width="58" height="58" viewBox="0 0 58 58" fill="none" xmlns="http://www.w3.org/2000/svg">
<g filter="url(#filter0_d_337_7605)">
<rect x="4" y="4" width="50" height="50" rx="25" fill="#FF7043"/>
</g>
<rect width="24" height="24" transform="translate(17 16)" fill="#FF7043"/>
<path d="M24.72 32.4563L26.481 31.9483L37.084 21.2183C37.1676 21.1326 37.2142 21.0175 37.2136 20.8977C37.2131 20.778 37.1654 20.6633 37.081 20.5783L36.446 19.9363C36.405 19.8942 36.3559 19.8606 36.3018 19.8376C36.2477 19.8146 36.1895 19.8026 36.1306 19.8023C36.0718 19.802 36.0135 19.8135 35.9591 19.836C35.9048 19.8585 35.8554 19.8916 35.814 19.9333L25.239 30.6353L24.719 32.4553L24.72 32.4563ZM37.703 18.6643L38.338 19.3073C39.214 20.1943 39.222 21.6253 38.354 22.5033L27.428 33.5613L23.664 34.6453C23.4342 34.7097 23.1883 34.6802 22.9802 34.5634C22.7721 34.4466 22.6188 34.252 22.554 34.0223C22.5058 33.8572 22.5051 33.6818 22.552 33.5163L23.647 29.6763L34.544 18.6473C34.7512 18.4387 34.9979 18.2734 35.2696 18.1611C35.5414 18.0488 35.8328 17.9917 36.1269 17.9932C36.4209 17.9947 36.7117 18.0547 36.9823 18.1698C37.2529 18.2848 37.4979 18.4526 37.703 18.6633V18.6643ZM26.184 19.8173C26.68 19.8173 27.082 20.2243 27.082 20.7263C27.0828 20.845 27.0602 20.9627 27.0155 21.0726C26.9708 21.1825 26.9048 21.2825 26.8214 21.367C26.738 21.4514 26.6388 21.5185 26.5294 21.5646C26.42 21.6106 26.3027 21.6347 26.184 21.6353H22.592C21.6 21.6353 20.796 22.4493 20.796 23.4523V34.3583C20.796 35.3623 21.6 36.1763 22.592 36.1763H33.368C34.36 36.1763 35.165 35.3623 35.165 34.3583V30.7233C35.165 30.2213 35.567 29.8143 36.063 29.8143C36.559 29.8143 36.961 30.2213 36.961 30.7243V34.3583C36.961 36.3663 35.352 37.9943 33.368 37.9943H22.592C20.608 37.9943 19 36.3663 19 34.3583V23.4523C19 21.4453 20.608 19.8173 22.592 19.8173H26.184Z" fill="white"/>
<defs>
<filter id="filter0_d_337_7605" x="0" y="0" width="58" height="58" filterUnits="userSpaceOnUse" color-interpolation-filters="sRGB">
<feFlood flood-opacity="0" result="BackgroundImageFix"/>
<feColorMatrix in="SourceAlpha" type="matrix" values="0 0 0 0 0 0 0 0 0 0 0 0 0 0 0 0 0 0 127 0" result="hardAlpha"/>
<feOffset/>
<feGaussianBlur stdDeviation="2"/>
<feComposite in2="hardAlpha" operator="out"/>
<feColorMatrix type="matrix" values="0 0 0 0 0 0 0 0 0 0 0 0 0 0 0 0 0 0 0.25 0"/>
<feBlend mode="normal" in2="BackgroundImageFix" result="effect1_dropShadow_337_7605"/>
<feBlend mode="normal" in="SourceGraphic" in2="effect1_dropShadow_337_7605" result="shape"/>
</filter>
</defs>
</svg>
