<svg width="55" height="55" viewBox="0 0 55 55" fill="none" xmlns="http://www.w3.org/2000/svg">
<circle cx="27.5" cy="27.5" r="27.5" fill="#FF7043"/>
<path d="M15.9453 23.4326C15.9452 22.6216 16.1071 21.8187 16.4216 21.0709C16.7362 20.323 17.197 19.6452 17.7772 19.0771C18.3574 18.5089 19.0454 18.0618 19.8008 17.7618C20.5563 17.4619 21.3641 17.3151 22.177 17.3301C23.139 17.3251 24.091 17.5239 24.97 17.9136C25.849 18.3032 26.6349 18.8748 27.2757 19.5903C27.9165 18.8748 28.7025 18.3032 29.5815 17.9136C30.4605 17.5239 31.4125 17.3251 32.3744 17.3301C33.1874 17.3151 33.9952 17.4619 34.7507 17.7618C35.5061 18.0618 36.194 18.5089 36.7742 19.0771C37.3544 19.6452 37.8153 20.323 38.1298 21.0709C38.4444 21.8187 38.6063 22.6216 38.6062 23.4326C38.6062 29.4853 31.3785 34.0553 27.2757 37.6716C23.1821 34.0248 15.9453 29.4898 15.9453 23.4326Z" fill="white"/>
</svg>
