<svg width="20" height="20" viewBox="0 0 20 20" fill="none" xmlns="http://www.w3.org/2000/svg">
<path d="M10 2C11.2081 2.0007 12.4004 2.27501 13.4873 2.80234C14.5743 3.32967 15.5277 4.09633 16.276 5.04479C17.0243 5.99324 17.5481 7.09886 17.808 8.27868C18.0679 9.45849 18.0573 10.6819 17.7769 11.857C17.4964 13.0321 16.9535 14.1284 16.1888 15.0637C15.4241 15.999 14.4575 16.749 13.3616 17.2573C12.2656 17.7657 11.0688 18.0192 9.86083 17.9989C8.65289 17.9785 7.46524 17.6849 6.387 17.14L6.266 17.075L2.621 17.985C2.55085 18.0026 2.47771 18.0048 2.40662 17.9915C2.33554 17.9781 2.2682 17.9495 2.20926 17.9075C2.15032 17.8656 2.10117 17.8114 2.06522 17.7486C2.02926 17.6859 2.00735 17.6161 2.001 17.544V17.462L2.015 17.379L2.925 13.735L2.862 13.615C2.40438 12.7142 2.12269 11.7343 2.032 10.728L2.007 10.346L2 10C2 7.87827 2.84285 5.84344 4.34315 4.34315C5.84344 2.84285 7.87827 2 10 2ZM10.5 11H7.5L7.41 11.008C7.29472 11.0289 7.19043 11.0896 7.11532 11.1795C7.04022 11.2694 6.99908 11.3828 6.99908 11.5C6.99908 11.6172 7.04022 11.7306 7.11532 11.8205C7.19043 11.9104 7.29472 11.9711 7.41 11.992L7.5 12H10.5L10.59 11.992C10.7053 11.9711 10.8096 11.9104 10.8847 11.8205C10.9598 11.7306 11.0009 11.6172 11.0009 11.5C11.0009 11.3828 10.9598 11.2694 10.8847 11.1795C10.8096 11.0896 10.7053 11.0289 10.59 11.008L10.5 11ZM12.5 8H7.5L7.41 8.008C7.29472 8.02887 7.19043 8.08957 7.11532 8.17949C7.04022 8.26941 6.99908 8.38284 6.99908 8.5C6.99908 8.61716 7.04022 8.73059 7.11532 8.82051C7.19043 8.91043 7.29472 8.97113 7.41 8.992L7.5 9H12.5L12.59 8.992C12.7053 8.97113 12.8096 8.91043 12.8847 8.82051C12.9598 8.73059 13.0009 8.61716 13.0009 8.5C13.0009 8.38284 12.9598 8.26941 12.8847 8.17949C12.8096 8.08957 12.7053 8.02887 12.59 8.008L12.5 8Z" fill="#CCCCCC"/>
</svg>
