<svg width="32" height="32" viewBox="0 0 32 32" fill="none" xmlns="http://www.w3.org/2000/svg">
<path fill-rule="evenodd" clip-rule="evenodd" d="M16 3C8.82045 3 3 8.82045 3 16C3 23.1795 8.82045 29 16 29C23.1795 29 29 23.1795 29 16C29 8.82045 23.1795 3 16 3ZM17.1818 20.7273C17.1818 21.0407 17.0573 21.3413 16.8357 21.5629C16.614 21.7846 16.3134 21.9091 16 21.9091C15.6866 21.9091 15.386 21.7846 15.1643 21.5629C14.9427 21.3413 14.8182 21.0407 14.8182 20.7273V17.1818H11.2727C10.9593 17.1818 10.6587 17.0573 10.4371 16.8357C10.2154 16.614 10.0909 16.3134 10.0909 16C10.0909 15.6866 10.2154 15.386 10.4371 15.1643C10.6587 14.9427 10.9593 14.8182 11.2727 14.8182H14.8182V11.2727C14.8182 10.9593 14.9427 10.6587 15.1643 10.4371C15.386 10.2154 15.6866 10.0909 16 10.0909C16.3134 10.0909 16.614 10.2154 16.8357 10.4371C17.0573 10.6587 17.1818 10.9593 17.1818 11.2727V14.8182H20.7273C21.0407 14.8182 21.3413 14.9427 21.5629 15.1643C21.7846 15.386 21.9091 15.6866 21.9091 16C21.9091 16.3134 21.7846 16.614 21.5629 16.8357C21.3413 17.0573 21.0407 17.1818 20.7273 17.1818H17.1818V20.7273Z" fill="#787878"/>
</svg>
